

<svg xmlns="http://www.w3.org/2000/svg" version="1.1" xmlns:xlink="http://www.w3.org/1999/xlink" width="2000" height="1500" viewBox="0 0 2000 1500">
    <rect width="2000" height="1500" x="0" y="0" id="background" stroke="transparent" fill="#ffffff" rx="200" ry="200"></rect>
    <svg xml:space="preserve" width="1500" height="1125" data-version="2" data-id="lg_M5qQXIuC5Dr62eHWN2" viewBox="0 0 220 220" x="250" y="187.5">
        <rect width="100%" height="100%" fill="transparent"></rect>
        <path fill="#3b5787" d="M217.755 74.66v17.75q0 13.38-3.31 23.91t-8.95 18.57q-5.64 8.05-13.01 13.76-7.37 5.72-15.41 9.33-8.05 3.61-16.25 5.26-8.19 1.66-15.41 1.66h-88.43v-39.11h88.43q7.52-.6 13.61-3.08t10.45-6.69q4.36-4.21 6.77-10.15 2.4-5.94 2.4-13.46V74.66q-.75-7.37-3.15-13.53-2.41-6.17-6.55-10.53-4.13-4.36-10-6.84-5.86-2.49-13.53-2.49h-88.13q-7.82 0-11.88 4.07-4.06 4.06-4.06 11.73v160.76h-39.1V57.07q0-15.04 5.49-25.57 5.48-10.53 13.68-17 8.2-6.46 17.82-9.39 9.63-2.94 17.75-2.94h88.43q13.23 0 23.76 3.39 10.53 3.38 18.57 9.02 8.05 5.64 13.69 13.01 5.64 7.37 9.32 15.41 3.69 8.05 5.34 16.25 1.66 8.19 1.66 15.41"></path>
    </svg>
</svg>
